<svg width="20" height="17" viewBox="0 0 20 17" fill="none" xmlns="http://www.w3.org/2000/svg">
<path d="M0.833801 14.6665C0.833801 12.8248 2.9838 11.3332 6.66714 11.3332C10.3505 11.3332 12.5005 12.8248 12.5005 14.6665V16.3332H0.833801V14.6665Z" fill="white"/>
<path d="M4.31011 8.69018C3.68499 8.06506 3.3338 7.21721 3.3338 6.33315H10.0005C10.0005 7.21721 9.64928 8.06506 9.02416 8.69018C8.39904 9.3153 7.55119 9.66649 6.66714 9.66649C5.78308 9.66649 4.93523 9.3153 4.31011 8.69018Z" fill="white"/>
<path d="M6.08798 0.526209C6.13971 0.506195 6.19506 0.497207 6.25047 0.499822H7.0838C7.13941 0.496412 7.1951 0.504854 7.2472 0.524588C7.2993 0.544321 7.34661 0.574897 7.386 0.614289C7.42539 0.653682 7.45597 0.700993 7.4757 0.753091C7.49544 0.805188 7.50388 0.860883 7.50047 0.916488V3.41649H8.3338V1.33315C8.92285 1.60701 9.41632 2.0511 9.75053 2.60812C10.0847 3.16514 10.2444 3.80954 10.2088 4.45815C10.2088 4.45815 10.7921 4.57482 10.8338 5.49982H2.50047C2.50047 4.57482 3.12547 4.45815 3.12547 4.45815C3.08991 3.80954 3.24953 3.16514 3.58374 2.60812C3.91796 2.0511 4.41142 1.60701 5.00047 1.33315V3.41649H5.8338V0.916488C5.83119 0.861077 5.84017 0.805731 5.86019 0.753995C5.8802 0.702259 5.9108 0.655273 5.95003 0.616048C5.98925 0.576823 6.03624 0.546223 6.08798 0.526209Z" fill="white"/>
<path d="M15.5551 9.24558C15.144 9.52028 14.6607 9.6669 14.1662 9.6669C13.8375 9.66834 13.5118 9.60465 13.2078 9.47952C12.9039 9.35439 12.6277 9.1703 12.3953 8.93787C12.1628 8.70543 11.9787 8.42927 11.8536 8.1253C11.7285 7.82134 11.6648 7.49561 11.6662 7.1669C11.6662 6.67245 11.8128 6.1891 12.0875 5.77798C12.3623 5.36685 12.7527 5.04642 13.2095 4.8572C13.6663 4.66798 14.169 4.61848 14.6539 4.71494C15.1389 4.8114 15.5844 5.0495 15.934 5.39913C16.2836 5.74877 16.5217 6.19422 16.6182 6.67918C16.7146 7.16413 16.6651 7.6668 16.4759 8.12361C16.2867 8.58043 15.9663 8.97087 15.5551 9.24558Z" fill="white"/>
<path d="M12.5246 11.3752C12.8162 11.3502 13.0912 11.3336 13.3329 11.3336C15.2746 11.3336 19.1662 12.3086 19.1662 14.2502V16.3336H14.1662V14.2502C14.1496 13.6731 13.9912 13.1089 13.7049 12.6075C13.4186 12.1061 13.0132 11.6829 12.5246 11.3752Z" fill="white"/>
</svg>
